<svg xmlns="http://www.w3.org/2000/svg" viewBox="0 0 512 512">
  <rect width="512" height="512" rx="112" fill="#0d0d1a"/>
  <path d="M256 84c-84 0-152 68-152 152v64c0 31-12.7 60.8-35.2 82.8L48 398h137.6c10 33.8 39.3 56 70.4 56s60.4-22.2 70.4-56H464l-20.8-15.2A102.4 102.4 0 0 1 408 300v-64c0-84-68-152-152-152Zm0 336a37.6 37.6 0 0 1-33.6-24h67.2A37.6 37.6 0 0 1 256 420Zm112-56H144.8A131.5 131.5 0 0 0 168 300v-64c0-48.6 39.4-88 88-88s88 39.4 88 88v64c0 22.9 8.3 45 24 64Z" fill="#58a6ff"/>
  <circle cx="378" cy="144" r="48" fill="#3fb950"/>
</svg>
